HIERARCHY
ROOT Hips
{
     OFFSET 1.88212 96.90440 -13.34250
     CHANNELS 6 Xposition Yposition Zposition Zrotation Xrotation Yrotation
     JOINT Spine
     {
          OFFSET 0.00000 11.89050 0.00000
          CHANNELS 3 Zrotation Xrotation Yrotation
          JOINT Spine1
          {
               OFFSET -0.00000 25.65740 0.12766
               CHANNELS 3 Zrotation Xrotation Yrotation
               JOINT HEad
               {
                    OFFSET 0.00000 8.73416 0.01134
                    CHANNELS 3 Zrotation Xrotation Yrotation
                    End Site
                    {
                         OFFSET -0.29000 12.77420 2.51395
                    }
               }
               JOINT LeftShoulder1
               {
                    OFFSET 8.99000 -0.36225 -0.22000
                    CHANNELS 3 Zrotation Xrotation Yrotation
                    JOINT LeftArm
                    {
                         OFFSET 10.28270 -0.00338 0.32212
                         CHANNELS 3 Zrotation Xrotation Yrotation
                         JOINT LeftForeArm
                         {
                              OFFSET 32.76690 0.09914 -1.42434
                              CHANNELS 3 Zrotation Xrotation Yrotation
                              JOINT LeftHand
                              {
                                   OFFSET 27.56430 0.08536 1.02216
                                   CHANNELS 3 Zrotation Xrotation Yrotation
                                   End Site
                                   {
                                        OFFSET 16.74430 -0.60000 1.50291
                                   }
                              }
                         }
                    }
               }
               JOINT RightShoulder
               {
                    OFFSET -8.99000 -0.36225 -0.22000
                    CHANNELS 3 Zrotation Xrotation Yrotation
                    JOINT RightArm
                    {
                         OFFSET -10.28270 -0.00338 0.32212
                         CHANNELS 3 Zrotation Xrotation Yrotation
                         JOINT RightForeArm
                         {
                              OFFSET -32.89710 0.09914 -1.42434
                              CHANNELS 3 Zrotation Xrotation Yrotation
                              JOINT RightHand
                              {
                                   OFFSET -27.49210 0.08536 1.02216
                                   CHANNELS 3 Zrotation Xrotation Yrotation
                                   End Site
                                   {
                                        OFFSET -16.63120 -0.60000 1.50291
                                   }
                              }
                         }
                    }
               }
          }
     }
     JOINT LeftUpLeg
     {
          OFFSET 8.94580 -8.66707 0.10165
          CHANNELS 3 Zrotation Xrotation Yrotation
          JOINT LeftLeg
          {
               OFFSET 0.00000 -44.42270 1.37270
               CHANNELS 3 Zrotation Xrotation Yrotation
               JOINT LeftFoot
               {
                    OFFSET -0.25355 -42.09240 -1.46059
                    CHANNELS 3 Zrotation Xrotation Yrotation
                    JOINT LeftToes
                    {
                         OFFSET -0.04000 -4.41509 8.49910
                         CHANNELS 3 Zrotation Xrotation Yrotation
                         End Site
                         {
                              OFFSET 0.08000 -0.04745 9.77979
                         }
                    }
               }
          }
     }
     JOINT RightUpLeg
     {
          OFFSET -8.94580 -8.66707 0.10165
          CHANNELS 3 Zrotation Xrotation Yrotation
          JOINT RightLeg
          {
               OFFSET 0.00000 -44.42270 1.37270
               CHANNELS 3 Zrotation Xrotation Yrotation
               JOINT RightFoot
               {
                    OFFSET 0.25355 -42.09240 -1.46059
                    CHANNELS 3 Zrotation Xrotation Yrotation
                    JOINT RightToes
                    {
                         OFFSET 0.04000 -4.41509 8.49910
                         CHANNELS 3 Zrotation Xrotation Yrotation
                         End Site
                         {
                              OFFSET -0.08000 -0.13745 9.77979
                         }
                    }
               }
          }
     }
}
MOTION
Frames: 13
Frame Time: 0.01667
44.88643 91.66295 -117.84061 -4.05976 -3.50829 -16.78686 10.06575 2.56213 -11.95705 -0.04483 0.06897 0.05848 -13.17683 23.14368 19.78394 -23.96099 20.44503 27.74211 -139.11176 -53.60939 -126.41886 -47.47482 51.95306 -82.76294 6.13616 7.69487 -2.77259 -4.25490 30.68504 32.17729 78.59792 -25.46575 71.53159 43.83140 54.48070 109.12700 -3.47015 -0.53986 6.85495 15.06001 -20.23433 -3.10550 -0.82893 20.80431 5.28529 5.13814 -0.00319 0.00133 -15.14422 -2.54643 4.71039 -16.50327 6.91741 -7.98834 8.35588 24.84612 4.88605 5.43038 -0.00041 0.06370 -2.66600 -29.10901 -7.09106 
44.34243 90.08739 -118.21751 -3.43369 -3.29432 -13.20258 7.60952 6.03347 -10.75571 -0.04281 0.06087 0.04763 -12.25507 17.43068 17.92617 -20.97377 18.89629 23.78974 -138.39366 -53.34748 -124.79977 -46.68924 51.75840 -83.40771 5.62969 7.37058 -3.74852 -1.06568 27.73051 28.90428 73.57661 -19.19798 65.19941 42.07748 58.07475 117.52544 -3.40169 11.38485 -1.95874 14.09019 -24.18666 -2.59366 -0.01674 23.94438 1.43637 6.06476 -0.00538 0.00355 -16.92804 -2.82498 4.90968 -15.31119 4.06432 -8.69205 6.45616 32.73946 1.24376 7.55842 0.01334 0.10119 -4.66368 -35.42990 -6.46168 
43.53205 88.05211 -118.83003 -2.17031 -3.37495 -7.96218 4.38525 10.25503 -10.32516 -0.03764 0.05125 0.03090 -12.01411 11.12801 15.99958 -27.39079 21.43817 28.52650 -132.02246 -42.80770 -124.91030 -46.14122 52.05006 -84.23636 15.36959 5.75202 12.66661 -7.92323 31.14824 32.42076 79.20382 -20.17594 71.98180 39.33511 60.40313 123.43836 -9.86633 -1.88073 -0.56710 11.44923 -28.72462 -3.09244 1.59174 27.70961 -3.57547 6.85584 -0.00615 0.00513 -18.41056 -3.37088 4.76365 -14.71720 0.75035 -10.21230 4.96114 42.48988 -3.36990 10.31127 0.03720 0.14706 -6.34410 -41.86490 -5.43409 
42.54420 85.89374 -119.63237 -1.03002 -3.43876 -3.30206 1.03558 15.26409 -8.50091 -0.03325 0.04279 0.01729 -12.72419 4.65126 13.74651 -22.88703 19.97898 22.86587 -131.23206 -42.06606 -122.99194 -48.09961 49.02670 -80.54990 3.82314 8.63484 -4.74084 -14.01938 34.23384 35.45150 86.34467 -21.80977 80.44911 36.42262 62.04177 127.53863 -5.20107 12.99567 -3.18214 8.81988 -33.28990 -2.35619 4.30006 31.79140 -9.93335 7.55871 -0.00596 0.00570 -20.11908 -4.39746 4.45437 -14.22010 -3.31795 -10.43528 5.55928 51.96685 -9.63089 12.98776 0.05057 0.11518 -7.08763 -46.88231 -4.25938 
41.26481 83.42699 -120.60541 -0.00943 -3.41761 0.89905 -2.54149 20.79035 -5.37260 -0.03033 0.04292 0.01078 -14.61218 -1.67251 10.85440 -27.40212 23.31106 26.44021 -125.88668 -30.91275 -123.97931 -48.69484 48.08054 -79.08270 18.54851 7.26584 18.07743 -6.24606 31.48917 28.24762 84.36697 -20.55119 78.69573 34.03551 63.20683 130.22475 -17.60770 -9.40926 -8.07691 6.34862 -37.96035 -0.44368 8.35379 35.79839 -17.82892 8.20652 -0.00551 0.00539 -21.48252 -5.61190 3.85928 -13.79198 -7.80447 -9.47778 9.70602 61.11577 -18.96829 15.71821 0.04859 0.10066 -8.58698 -52.59545 -3.64360 
39.79953 80.96832 -121.66464 0.94523 -3.27618 4.68875 -6.56270 26.53467 -0.92746 -0.02624 0.04051 0.00185 -17.86203 -7.12868 7.12962 -21.08415 21.62329 19.32372 -125.36915 -30.00912 -121.68813 -48.79819 48.62708 -79.10130 14.43954 4.61416 2.19376 1.24871 27.94430 21.38139 83.16787 -19.73184 77.61896 43.09505 65.54724 120.38890 -9.03077 7.10407 -0.66250 4.11924 -42.69176 2.65933 13.88760 39.23604 -27.40343 8.87263 -0.00491 0.00527 -23.19116 -6.80901 3.93829 -13.74858 -11.78269 -8.49038 18.61222 68.85234 -31.81702 18.42457 0.04551 0.08703 -8.44985 -56.57088 -2.92882 
38.11237 78.33100 -122.70488 2.17434 -1.81498 9.81872 -10.56551 31.48363 2.65090 -0.02115 0.04071 -0.00624 -22.26351 -10.89429 2.65631 -23.34623 25.61635 22.43785 -120.59873 -18.42635 -123.22360 -48.01891 46.63242 -75.02439 13.07913 7.74839 7.69973 0.17633 32.29078 23.19859 90.28173 -24.14964 87.70710 47.77715 67.04250 115.43919 -12.50318 2.73962 -1.08675 0.08168 -48.69777 4.55847 20.60165 41.76017 -38.46495 9.63274 -0.00388 0.00430 -25.23542 -7.27742 3.66496 -15.04469 -15.88202 -9.55081 35.42857 74.50932 -51.48232 21.00025 0.03838 0.07286 -8.93379 -60.59071 -1.13933 
36.32758 75.83055 -123.64606 3.18062 -0.36962 14.24717 -14.95849 36.58796 7.25245 -0.02029 0.04137 -0.00701 -26.39041 -13.47247 -2.76954 -15.97570 22.81993 14.88768 -120.30483 -17.89091 -120.85275 -47.05530 46.25640 -73.71627 9.00124 6.27131 -3.64193 7.72463 27.32830 16.60255 89.33584 -23.52746 86.38289 49.34520 68.12100 113.86877 -8.59879 11.43591 1.83484 -4.18724 -53.84028 6.09876 27.15062 42.89371 -48.81655 10.49134 -0.00326 0.00198 -26.99468 -7.73885 3.42237 -16.58393 -19.29016 -10.40184 60.87629 77.04268 -78.88965 23.34512 0.02921 0.05765 -8.52603 -63.83952 0.10454 
34.50188 73.37118 -124.35871 4.02055 1.06966 18.05578 -19.95250 41.67509 12.91791 -0.01453 0.04503 -0.01026 -30.07186 -15.01928 -8.79457 -8.98902 19.26412 8.44679 -120.50669 -19.67260 -115.73306 -45.15637 47.72247 -78.02521 8.08722 17.54976 19.21715 13.85539 21.90721 11.62021 88.85511 -23.09067 85.72767 49.46829 68.77764 113.86451 -10.94378 7.68615 0.90323 -8.62496 -58.19999 7.21705 32.86933 42.94264 -57.90358 11.42065 -0.00380 -0.00082 -28.66552 -7.01386 3.34071 -18.20042 -22.07331 -11.10312 85.61329 76.37220 -104.84217 25.45019 0.01932 0.04560 -8.06536 -66.40662 1.83580 
32.71043 71.17948 -124.82579 4.72845 2.48568 21.29351 -25.81585 46.59585 19.72854 -0.00901 0.04797 -0.01889 -33.11826 -15.82732 -15.11768 -3.02205 14.70041 2.90890 -120.33430 -20.61427 -112.39159 -43.56231 48.57571 -81.14673 3.71884 9.22162 10.15148 18.97756 15.90361 7.57521 88.58901 -22.47758 85.22141 49.33231 69.39191 114.39420 -8.67671 11.85308 2.02930 -13.08830 -61.78093 7.97273 37.51609 42.26323 -65.54113 12.37551 -0.00510 -0.00237 -29.97861 -6.22595 3.32413 -19.72703 -24.28849 -11.64672 101.47902 73.96129 -121.37395 27.27675 0.01129 0.03528 -8.29102 -68.22729 2.22049 
31.03250 69.22807 -125.01314 5.33324 3.86817 24.01005 -32.28954 50.92286 27.30551 -0.00551 0.05211 -0.03144 -34.04457 -15.56471 -21.16264 1.69664 9.78856 -1.58893 -120.00053 -20.94997 -110.40596 -42.37362 48.82800 -83.00689 6.78825 14.93030 13.31010 22.78220 9.94656 4.46193 88.72209 -21.91347 84.96531 48.95555 69.66297 115.36172 -9.98011 10.27024 0.98406 -17.38029 -64.63667 8.47926 41.05296 41.18338 -71.72437 13.33543 -0.00570 -0.00310 -31.07375 -4.61509 3.15329 -21.06527 -26.01053 -12.01700 110.15594 71.21765 -130.31804 28.87456 0.00554 0.02748 -9.68366 -70.50487 2.70053 
29.54448 67.61581 -124.95300 5.84614 5.20090 26.24008 -37.84509 53.83200 33.90335 0.02507 -0.04306 -0.05943 -33.07093 -14.50927 -25.87004 4.94296 5.88051 -4.90313 -119.60802 -21.02767 -109.14261 -41.59762 48.93446 -84.15767 3.84472 10.04023 7.74922 25.60771 5.30822 1.83706 88.69160 -21.37201 84.73981 48.33511 69.69422 116.66135 -8.18152 12.73555 1.22715 -21.26616 -66.83611 8.89638 43.61225 39.95520 -76.58952 14.29616 -0.00596 -0.00279 -31.84561 -3.42332 2.94452 -22.15661 -27.30221 -12.22123 114.70744 68.78756 -134.83310 30.27064 0.00140 0.02104 -11.35703 -71.80278 1.43151 
28.30336 66.39500 -124.66787 6.30585 6.44036 27.99779 -42.15075 55.68026 39.04208 0.02646 -0.04554 -0.05883 -30.61206 -13.70964 -29.76800 7.20943 2.72298 -7.44782 -119.29705 -21.14650 -108.32829 -41.22156 48.89791 -84.78599 6.00631 12.98739 9.25588 27.35438 1.62993 -0.31047 88.95365 -21.01711 84.57042 47.87934 69.51721 117.92348 -8.54452 11.95267 0.50143 -24.66776 -68.02641 8.21935 44.55085 39.14682 -78.95945 15.21717 -0.00587 -0.00165 -32.78405 -2.62862 2.61514 -22.97623 -28.17034 -12.23522 116.80925 66.93659 -136.68799 31.49574 -0.00111 0.01545 -14.99540 -73.15954 -1.17185 
